<?xml version="1.0" encoding="UTF-8"?>
<svg width="48px" height="48px" viewBox="0 0 48 48" version="1.1" xmlns="http://www.w3.org/2000/svg" xmlns:xlink="http://www.w3.org/1999/xlink">
    <title>cv-dark</title>
    <g id="cv-dark" stroke="none" stroke-width="1" fill="none" fill-rule="evenodd">
        <path d="M12.9462891,36.402832 C17.409668,36.402832 21.1157227,34.2758789 22.5175781,30.9726562 C22.7592773,30.4086914 22.8881836,29.8286133 22.8881836,29.2646484 C22.8881836,27.7016602 21.7924805,26.6542969 20.1166992,26.6542969 C18.8759766,26.6542969 18.1508789,27.1699219 17.5385742,28.4428711 C16.5395508,30.6342773 14.9765625,31.6655273 12.8334961,31.6655273 C9.57861328,31.6655273 7.54833984,28.9101562 7.54833984,24.3500977 C7.54833984,19.8383789 9.59472656,17.0830078 12.8173828,17.0830078 C14.8637695,17.0830078 16.4267578,18.1303711 17.4741211,20.2895508 C18.1186523,21.5786133 18.9243164,22.1103516 20.2294922,22.1103516 C21.7763672,22.1103516 22.8076172,21.1274414 22.8076172,19.612793 C22.8076172,18.9038086 22.5981445,18.1625977 22.2114258,17.4536133 C20.4711914,14.1503906 17.1518555,12.3457031 12.7529297,12.3457031 C5.88867188,12.3457031 1.52197266,16.7768555 1.52197266,24.3662109 C1.52197266,31.9716797 5.79199219,36.402832 12.9462891,36.402832 Z M35.972168,36.3544922 C38.3730469,36.3544922 39.8393555,35.2587891 40.7255859,32.7612305 L46.5424805,16.7124023 C46.7358398,16.1967773 46.8325195,15.6972656 46.8325195,15.1494141 C46.8325195,13.5058594 45.5917969,12.394043 43.7871094,12.394043 C42.2080078,12.394043 41.2895508,13.1030273 40.8383789,14.6821289 L36.1816406,30.215332 L36.0527344,30.215332 L31.3476562,14.7626953 C30.8803711,13.1352539 29.9296875,12.394043 28.2861328,12.394043 C26.4169922,12.394043 25.1601562,13.5541992 25.1601562,15.2460938 C25.1601562,15.8422852 25.2568359,16.3901367 25.434082,16.9057617 L31.2026367,32.7612305 C32.1049805,35.2587891 33.5390625,36.3544922 35.972168,36.3544922 Z" id="CV-Heavy---outlines" fill="#FFFFFF" fill-rule="nonzero"></path>
    </g>
</svg>