<?xml version="1.0" encoding="UTF-8"?>
<svg width="48px" height="48px" viewBox="0 0 48 48" version="1.1" xmlns="http://www.w3.org/2000/svg" xmlns:xlink="http://www.w3.org/1999/xlink">
    <title>email-dark</title>
    <g id="email-dark" stroke="none" stroke-width="1" fill="none" fill-rule="evenodd">
        <path d="M40.8164062,43.3730469 C42.8359375,43.3730469 44.4042969,42.7965495 45.5214844,41.6435547 C46.6386719,40.4905599 47.1972656,38.8040365 47.1972656,36.5839844 L47.1972656,14.1113281 C47.1972656,11.905599 46.6171875,10.226237 45.4570312,9.07324219 C44.296875,7.9202474 42.5996094,7.34375 40.3652344,7.34375 L7.58007812,7.34375 C5.56054688,7.34375 3.98860677,7.9202474 2.86425781,9.07324219 C1.73990885,10.226237 1.17773438,11.905599 1.17773438,14.1113281 L1.17773438,36.5839844 C1.17773438,38.8040365 1.76139323,40.4905599 2.92871094,41.6435547 C4.09602865,42.7965495 5.78971354,43.3730469 8.00976562,43.3730469 L40.8164062,43.3730469 Z M24.2089844,27.0664062 C23.8509115,27.0664062 23.4928385,26.9733073 23.1347656,26.7871094 C22.7766927,26.6009115 22.389974,26.3072917 21.9746094,25.90625 L7.448,11.557 L7.61736506,11.5348011 C7.76959044,11.5194129 7.92903646,11.5117188 8.09570312,11.5117188 L40.3007812,11.5117188 C40.5429688,11.5117188 40.7702415,11.5290305 40.9825994,11.5636541 L40.984,11.564 L26.4648438,25.90625 C26.0494792,26.3216146 25.6627604,26.6188151 25.3046875,26.7978516 C24.9466146,26.976888 24.5813802,27.0664062 24.2089844,27.0664062 Z M5.281,35.912 L5.281,14.639 L16.064,25.237 L5.281,35.912 Z M43.093,35.867 L32.374,25.238 L43.093,14.703 L43.093,35.867 Z M40.3007812,39.2050781 L8.09570312,39.2050781 C7.84570312,39.2050781 7.61194957,39.1877663 7.39444247,39.1531428 L7.31,39.138 L18.698,27.826 L19.71875,28.828125 C20.4635417,29.5585938 21.2047526,30.0921224 21.9423828,30.4287109 C22.680013,30.7652995 23.4355469,30.9335938 24.2089844,30.9335938 C24.9824219,30.9335938 25.7415365,30.7652995 26.4863281,30.4287109 C27.2311198,30.0921224 27.9759115,29.5585938 28.7207031,28.828125 L29.73,27.837 L41.1,39.131 L40.9825994,39.1531428 C40.7702415,39.1877663 40.5429688,39.2050781 40.3007812,39.2050781 Z" id="ô€•" fill="#FFFFFF" fill-rule="nonzero"></path>
    </g>
</svg>