<?xml version="1.0" encoding="UTF-8"?>
<svg width="48px" height="48px" viewBox="0 0 48 48" version="1.1" xmlns="http://www.w3.org/2000/svg" xmlns:xlink="http://www.w3.org/1999/xlink">
    <title>email-light-open</title>
    <g id="email-light-open" stroke="none" stroke-width="1" fill="none" fill-rule="evenodd">
        <path d="M45.2421875,40.1679688 C45.8411458,39.3085938 46.140625,37.9869792 46.140625,36.203125 L46.140625,20.0117188 C46.140625,18.8268229 46.0332031,17.8079427 45.8183594,16.9550781 C45.6035156,16.1022135 45.1998698,15.3111979 44.6074219,14.5820312 C44.014974,13.8528646 43.1588542,13.078125 42.0390625,12.2578125 L29.4609375,3.09765625 C28.3411458,2.27734375 27.3938802,1.70117188 26.6191406,1.36914062 C25.844401,1.03710938 24.9492188,0.87109375 23.9335938,0.87109375 C22.9049479,0.87109375 22.0032552,1.03710938 21.2285156,1.36914062 C20.453776,1.70117188 19.5065104,2.27734375 18.3867188,3.09765625 L5.80859375,12.2578125 C4.68880208,13.078125 3.83268229,13.8528646 3.24023438,14.5820312 C2.64778646,15.3111979 2.24414062,16.1022135 2.02929688,16.9550781 C1.81445312,17.8079427 1.70703125,18.8268229 1.70703125,20.0117188 L1.70703125,36.203125 C1.70703125,37.9869792 2.00651042,39.3085938 2.60546875,40.1679688 L15.7304688,27.1796875 L6.47265625,17.921875 C6.29036458,17.7395833 6.296875,17.5768229 6.4921875,17.4335938 L22.1171875,6.26171875 C22.5078125,5.98828125 22.8235677,5.78971354 23.0644531,5.66601562 C23.3053385,5.54231771 23.5950521,5.48046875 23.9335938,5.48046875 C24.2591146,5.48046875 24.5423177,5.54231771 24.7832031,5.66601562 C25.0240885,5.78971354 25.3398438,5.98828125 25.7304688,6.26171875 L41.3164062,17.3945312 C41.5377604,17.5768229 41.5442708,17.7721354 41.3359375,17.9804688 L32.1171875,27.1796875 L45.2421875,40.1679688 Z M38.8945312,43.4492188 C40.6132812,43.4492188 41.9023438,43.1692708 42.7617188,42.609375 L26.4921875,26.2617188 C25.5807292,25.3372396 24.7278646,24.875 23.9335938,24.875 C23.1263021,24.875 22.2669271,25.3372396 21.3554688,26.2617188 L5.0859375,42.609375 C5.90625,43.1692708 7.17578125,43.4492188 8.89453125,43.4492188 L38.8945312,43.4492188 Z" id="ô€š" fill="#111111" fill-rule="nonzero"></path>
    </g>
</svg>