<?xml version="1.0" encoding="UTF-8"?>
<svg width="48px" height="48px" viewBox="0 0 48 48" version="1.1" xmlns="http://www.w3.org/2000/svg" xmlns:xlink="http://www.w3.org/1999/xlink">
    <title>github-light</title>
    <g id="github-light" stroke="none" stroke-width="1" fill="none" fill-rule="evenodd">
        <path d="M2,24.557451 C2,34.5234408 8.30307867,42.9772921 17.0452746,45.9600269 C18.1459836,46.1677382 18.5471009,45.4712129 18.5471009,44.8730043 C18.5471009,44.3384938 18.528193,42.919133 18.5173885,41.0372683 C12.3979864,42.3998546 11.106848,38.0129912 11.106848,38.0129912 C10.1060806,35.4069064 8.66367906,34.7131505 8.66367906,34.7131505 C6.66619602,33.3145608 8.81494214,33.3422557 8.81494214,33.3422557 C11.023113,33.501501 12.1845974,35.6672379 12.1845974,35.6672379 C14.1469658,39.1138613 17.3342951,38.1182316 18.5876178,37.5407941 C18.7875012,36.0840453 19.3560883,35.0898004 19.9841002,34.5262103 C15.0991129,33.9570812 9.9629209,32.0212116 9.9629209,23.3776506 C9.9629209,20.9155789 10.8205286,18.9007789 12.2278155,17.3249423 C12.0009208,16.7544285 11.245956,14.4599106 12.4439056,11.3553185 C12.4439056,11.3553185 14.2901255,10.7488014 18.4930784,13.6678381 C20.24746,13.1665614 22.1301452,12.9173078 24.0006753,12.9076146 C25.8698548,12.9173078 27.7511894,13.1665614 29.5082722,13.6678381 C33.7085239,10.7488014 35.5520427,11.3553185 35.5520427,11.3553185 C36.7526935,14.4599106 35.9977286,16.7544285 35.7721845,17.3249423 C37.1821726,18.9007789 38.0330274,20.9155789 38.0330274,23.3776506 C38.0330274,32.0433675 32.888732,33.9501575 27.9888885,34.5082086 C28.7776175,35.204734 29.4812609,36.5811678 29.4812609,38.685976 C29.4812609,41.7005598 29.4542497,44.1335519 29.4542497,44.8730043 C29.4542497,45.4767519 29.8513153,46.1788162 30.9668805,45.9586422 C39.7023236,42.9689837 46,34.5206713 46,24.557451 C46,12.0989251 36.1489917,2 23.9979742,2 C11.8510083,2 2,12.0989251 2,24.557451 Z" id="GitHub-Mark-Copy" fill="#111111"></path>
    </g>
</svg>