<?xml version="1.0" encoding="UTF-8"?>
<svg width="48px" height="48px" viewBox="0 0 48 48" version="1.1" xmlns="http://www.w3.org/2000/svg" xmlns:xlink="http://www.w3.org/1999/xlink">
    <title>mastodon-light</title>
    <g id="mastodon-light" stroke="none" stroke-width="1" fill="none" fill-rule="evenodd">
        <g id="mastodon" transform="translate(2.000000, 0.000000)" fill="#FFFFFF" fill-rule="nonzero">
            <path d="M44.0571617,28.7710432 C43.3819562,32.1516407 38.1732277,35.8679005 32.0722633,36.5871765 C28.9132659,36.9468146 25.8024975,37.3064526 22.4988133,37.1625974 C17.0730545,36.8988628 12.8530198,35.8679005 12.8530198,35.8679005 L12.8530198,37.3544044 C13.6246833,42.6770473 18.2064352,42.9887336 22.5711567,43.1565647 C26.9599928,43.2764441 30.8665391,42.0536747 30.8665391,42.0536747 L31.059455,46.0096932 C31.059455,46.0096932 27.9728011,47.6400523 22.4988133,47.9517386 C19.4845028,48.1195697 15.7226434,47.879811 11.3579218,46.7529451 C1.90504421,44.2354788 0.265259321,34.1895896 0.0241144837,23.9758693 L0,15.7521461 C0,5.34661885 6.82439888,2.30168345 6.82439888,2.30168345 C10.320999,0.719276079 16.253162,0 22.4264698,0 L22.5711567,0 C28.7444646,0 34.6766275,0.719276079 38.1732277,2.30168345 C38.1732277,2.30168345 44.9976266,5.34661885 44.9976266,15.7521461 C44.9976266,15.7521461 45.0940845,23.4484002 44.0571617,28.7710432 M36.9675035,16.5673257 C36.9675035,13.9779318 36.244069,11.9879346 34.9177724,10.4295031 C33.5673613,8.91902338 31.7828895,8.12781969 29.5402425,8.12781969 C26.9841072,8.12781969 25.0308341,9.11083033 23.7045375,11.0768516 L22.4988133,13.1867281 L21.2930891,11.0768516 C19.942678,9.11083033 18.0135193,8.12781969 15.4332696,8.12781969 C13.2147371,8.12781969 11.4302653,8.91902338 10.0557397,10.4295031 C8.7294431,11.9879346 8.03012307,13.9779318 8.03012307,16.5673257 L8.03012307,29.1786329 L13.0941646,29.1786329 L13.0941646,16.9269637 C13.0941646,14.3855216 14.1793164,13.0428729 16.3737344,13.0428729 C18.7851828,13.0428729 19.990907,14.6013044 19.990907,17.6702157 L19.990907,24.3594832 L24.9826051,24.3594832 L24.9826051,17.6702157 C24.9826051,14.6013044 26.1883293,13.0428729 28.6238921,13.0428729 C30.7941957,13.0428729 31.8793474,14.3855216 31.8793474,16.9269637 L31.8793474,29.1786329 L36.9675035,29.1786329 L36.9675035,16.5673257 Z" id="Shape"></path>
        </g>
    </g>
</svg>