<?xml version="1.0" encoding="UTF-8"?>
<svg width="48px" height="48px" viewBox="0 0 48 48" version="1.1" xmlns="http://www.w3.org/2000/svg" xmlns:xlink="http://www.w3.org/1999/xlink">
    <title>twitter-light</title>
    <g id="twitter-light" stroke="none" stroke-width="1" fill="none" fill-rule="evenodd">
        <path d="M15.466632,42 C32.825928,42 42.318856,28.5357716 42.318856,16.860664 C42.318856,16.4780685 42.310576,16.0971956 42.291808,15.7183898 C44.134384,14.4713798 45.736288,12.9153304 47,11.1436081 C45.308856,11.8467846 43.489096,12.3208517 41.580096,12.5344575 C43.528656,11.4409336 45.024576,9.7100375 45.730032,7.64701887 C43.906224,8.6590625 41.887192,9.39514121 39.73752,9.79151778 C38.015464,8.07423048 35.562744,7 32.848744,7 C27.636392,7 23.409728,10.9570475 23.409728,15.8350117 C23.409728,16.5285415 23.492712,17.2026056 23.654448,17.8496245 C15.81108,17.4804654 8.85588,13.9644105 4.2016,8.61823623 C3.390344,9.92364331 2.923536,11.4409336 2.923536,13.0589975 C2.923536,16.1245853 4.589656,18.8306608 7.123152,20.4137554 C5.575344,20.3691394 4.120824,19.9708679 2.848832,19.3083454 C2.846624,19.3452096 2.846624,19.3822461 2.846624,19.4210052 C2.846624,23.7007009 6.100296,27.2730857 10.418224,28.0832374 C9.625736,28.2851293 8.79148,28.3939994 7.93036,28.3939994 C7.322424,28.3939994 6.731048,28.3376694 6.156232,28.2346563 C7.357752,31.7450265 10.841608,34.2995108 14.972776,34.3715166 C11.742104,36.7413352 7.673128,38.1535452 3.251424,38.1535452 C2.489848,38.1535452 1.73876,38.1128912 1,38.0312386 C5.176984,40.5371448 10.136152,42 15.466632,42" id="Fill-1" fill="#111111"></path>
    </g>
</svg>